<svg xmlns="http://www.w3.org/2000/svg" viewBox="0 0 58.88 64.18"><defs><style>.cls-1{fill:#666766;}</style></defs><title>Asset 1ldpi</title><g id="Layer_2" data-name="Layer 2"><g id="Layer_1-2" data-name="Layer 1"><path class="cls-1" d="M6.85,63.82c-4-1.41-6.38-4.28-6.71-8.39A36.11,36.11,0,0,1,2.8,37.92c1.89-4.34,4.93-7.39,9.93-8a3.64,3.64,0,0,1,2.72.5,41.14,41.14,0,0,0,5.36,3.22A19.62,19.62,0,0,0,40.4,32.27c2.15-1.34,4.05-3.21,7.08-2.2a13.17,13.17,0,0,1,7.41,5.73,27.43,27.43,0,0,1,3.52,11.43c.35,3.09.81,6.19.09,9.34a9.53,9.53,0,0,1-9,7.61H11.83A32.87,32.87,0,0,1,6.85,63.82Z"/><path class="cls-1" d="M31.05,0C35,1,38.63,2.39,41.33,5.61c4,4.72,5.17,10.08,3.08,15.85-2,5.61-6.08,9.38-12.14,10.37C23.64,33.24,15.79,28.06,13.94,20,12,11.4,16.62,3.47,25.1.72c.48-.16,1.29.13,1.46-.72Z"/></g></g></svg>