<svg xmlns="http://www.w3.org/2000/svg" viewBox="0 0 64.25 52.17"><defs><style>.cls-1{fill:#2c2c2c;}</style></defs><title>Asset 1ldpi</title><g id="Layer_2" data-name="Layer 2"><g id="Layer_1-2" data-name="Layer 1"><path class="cls-1" d="M32.29,0h28c3.17,0,3.94.65,4,3.27,0,.94,0,1.87,0,2.81,0,2-1,2.78-3.4,2.79q-12.09,0-24.2,0H4.16C1,8.9.1,8.1,0,5.45-.13.24.52-.06,6.52,0,15.11.1,23.7,0,32.29,0Z"/><path class="cls-1" d="M32.08,30.54h-28c-3,0-4-.79-4-3.34C-.12,22,.33,21.61,6.6,21.63c17.85.09,35.71,0,53.56,0,3.35,0,4.08.61,4.09,3.35,0,.87,0,1.74,0,2.62,0,2.14-.91,2.9-3.49,2.9Z"/><path class="cls-1" d="M32.3,52.17H4.06c-3,0-4-.8-4-3.34-.11-5.35.11-5.54,6.56-5.54H60.16c3.35,0,4.08.6,4.09,3.34,0,.87,0,1.74,0,2.61,0,2.14-.91,2.91-3.48,2.91Q46.54,52.19,32.3,52.17Z"/></g></g></svg>