<svg xmlns="http://www.w3.org/2000/svg" viewBox="0 0 65.6 53.8"><defs><style>.cls-1{fill:#ed2024;}</style></defs><title>Asset 1ldpi</title><g id="Layer_2" data-name="Layer 2"><g id="Layer_1-2" data-name="Layer 1"><path class="cls-1" d="M27.7,37.59c-2.69,0-5.39,0-8.08,0-2.44,0-3.43-1-3.45-3.35q0-7.29,0-14.58c0-2.51,1-3.45,3.58-3.46,5.38,0,10.77-.06,16.15,0,1.49,0,1.89-.42,1.84-1.87-.11-3.21,0-6.43-.05-9.64a2.94,2.94,0,0,1,1.75-3.08c1.33-.58,2.1.27,2.89,1.06q11,10.94,21.89,21.89c1.81,1.82,1.83,2.76.07,4.53q-11,11.06-22.05,22.05c-.8.81-1.62,1.57-2.93.92a2.92,2.92,0,0,1-1.62-2.93c0-3.36,0-6.73,0-10.09,0-1.19-.33-1.54-1.51-1.51C33.38,37.64,30.54,37.59,27.7,37.59Z"/><path class="cls-1" d="M0,26.78C0,22,0,17.21,0,12.43A12.1,12.1,0,0,1,11.85.06C16-.08,20.22.09,24.41,0c2.14,0,2.14,1.28,2.15,2.81s-.38,2.54-2.27,2.5c-4.18-.1-8.37-.05-12.56,0A6.5,6.5,0,0,0,5,11.87q-.06,15,0,30.05a6.5,6.5,0,0,0,6.74,6.57c4,0,8.08.07,12.11,0,2-.05,2.78.66,2.75,2.73s-.68,2.69-2.64,2.58c-4.76-.26-9.57.44-14.31-.4A11.87,11.87,0,0,1,0,41.81C0,36.8,0,31.79,0,26.78Z"/></g></g></svg>