<?xml version="1.0" encoding="utf-8"?>
<!-- Generator: Adobe Illustrator 21.0.2, SVG Export Plug-In . SVG Version: 6.00 Build 0)  -->
<svg version="1.1" id="Layer_1" xmlns="http://www.w3.org/2000/svg" xmlns:xlink="http://www.w3.org/1999/xlink" x="0px" y="0px"
	 viewBox="0 0 1077.2 907.1" style="enable-background:new 0 0 1077.2 907.1;" xml:space="preserve">
<g>
	<path d="M952.5,272.1H758c-6.7,0-12.1-5.4-12.1-12.1V65.4c0-6.7,5.4-12.1,12.1-12.1c6.7,0,12.1,5.4,12.1,12.1v182.4h182.4
		c6.7,0,12.1,5.4,12.1,12.1C964.7,266.6,959.2,272.1,952.5,272.1L952.5,272.1z"/>
	<path d="M952.5,272.1c-3.3,0-6.5-1.5-8.8-3.8L749.2,68.5c-4.6-4.8-4.4-12.5,0.6-17.1c4.8-4.4,12.1-4.4,16.7,0.2L961,251.4
		c4.6,4.8,4.6,12.5-0.2,17.1C958.6,271,955.7,272.3,952.5,272.1z"/>
	<path d="M758,48.1H371.2c-33.6,0-60.8,27.2-60.8,60.8v358.3c2.8-1.1,5.6-2.1,8.4-3.1c5.2-2.7,10.4-5.1,15.8-7V108.9
		c0-20.3,16.3-36.6,36.6-36.6H758c6.7,0,12.1-5.4,12.1-12.1S764.7,48.1,758,48.1z"/>
	<path d="M952.5,247.8c-6.7,0-12.1,5.4-12.1,12.1V798c0,20.3-16.3,36.6-36.6,36.6h-48.5v0.2H371.2c-20.3,0-36.6-16.3-36.8-36.6
		V597.8c-6.5,3.5-13.4,6.4-20.6,8.7c-1.2,0.6-2.4,1.3-3.7,1.9v189.9c0,33.6,27.2,60.8,60.8,60.8h532.6c33.6,0,60.8-27.2,60.8-60.8
		V259.9C964.7,253.3,959.2,247.8,952.5,247.8z"/>
	<g>
		<g>
			<path d="M773.5,449.1l-99-207.9c13.9-11.8,18.8-31.9,10.6-49.2c-9.8-20.5-34.4-29.3-54.9-19.5l-167,79.5
				c-20.5,9.8-29.3,34.4-19.5,54.9c8.2,17.3,26.9,26.2,44.9,22.8l32.8,69l-130,61.9c-3.9-6.4-12.2-9-19.1-5.7L142.1,564.3
				c-25.9,12.3-36.9,43.4-24.5,69.4c12.3,25.9,43.5,36.9,69.3,24.6l230.3-109.6c6.9-3.3,10.1-11.3,7.6-18.4l130-61.9l32.8,69
				c-13.9,11.8-18.9,31.8-10.8,48.9c9.8,20.5,34.4,29.3,54.9,19.5l166.9-79.4c20.5-9.8,29.3-34.4,19.5-54.9
				C810.1,454.5,791.4,445.7,773.5,449.1z M391,528.3L174.2,631.5c-11.1,5.3-24.5,0.6-29.9-10.6c-5.3-11.1-0.6-24.5,10.6-29.8
				l216.9-103.2L391,528.3z M470.6,294c-2.7-5.7-0.3-12.7,5.4-15.4l167-79.5c5.7-2.7,12.7-0.3,15.4,5.5s0.3,12.7-5.5,15.4l-167,79.5
				C480.2,302.2,473.3,299.8,470.6,294z M648.3,255.1l97.8,205.6l-132.3,63L516,318.1L648.3,255.1z M412,503.5l-7.7-16.3l129.9-61.8
				l7.7,16.3L412,503.5z M785.9,499.7l-167,79.5c-5.7,2.7-12.6,0.3-15.3-5.4s-0.3-12.2,5.6-15l167-79.5c5.8-2.8,12.5-0.5,15.2,5.1
				C794.1,490.1,791.7,496.9,785.9,499.7z"/>
		</g>
	</g>
	<g>
		<g>
			<path d="M647.5,339c-7.1,3.4-10.1,11.9-6.7,19l46.8,98.3c3.4,7.1,11.9,10.1,19,6.7s10.1-11.9,6.7-19l-46.8-98.3
				C663.1,338.6,654.6,335.6,647.5,339z"/>
		</g>
	</g>
	<g>
		<g>
			<path d="M628.5,299.2c-7.1,3.4-10.1,11.9-6.7,19l1.8,3.9c3.4,7.1,11.9,10.1,19,6.7s10.1-11.9,6.7-19l-1.8-3.9
				C644.1,298.8,635.6,295.8,628.5,299.2z"/>
		</g>
	</g>
	<g>
		<g>
			<path d="M775.6,739.9H595.4c-30.4,0-55.2,24.7-55.2,55.2c0,6.9,5.6,12.4,12.4,12.4h265.6c6.9,0,12.4-5.6,12.4-12.4
				C830.7,764.6,806,739.9,775.6,739.9z M567.2,783c4.7-11,15.6-18.7,28.3-18.7h180.2c12.7,0,23.6,7.7,28.3,18.7H567.2z"/>
		</g>
	</g>
</g>
</svg>
